<svg width="36" height="37" viewBox="0 0 36 37" fill="none" xmlns="http://www.w3.org/2000/svg">
<g id="vuesax/outline/instagram">
<g id="instagram">
<path id="Vector" d="M22.5 34.625H13.5C5.355 34.625 1.875 31.145 1.875 23V14C1.875 5.855 5.355 2.375 13.5 2.375H22.5C30.645 2.375 34.125 5.855 34.125 14V23C34.125 31.145 30.645 34.625 22.5 34.625ZM13.5 4.625C6.585 4.625 4.125 7.085 4.125 14V23C4.125 29.915 6.585 32.375 13.5 32.375H22.5C29.415 32.375 31.875 29.915 31.875 23V14C31.875 7.085 29.415 4.625 22.5 4.625H13.5Z" fill="black"/>
<path id="Vector_2" d="M18 24.875C14.49 24.875 11.625 22.01 11.625 18.5C11.625 14.99 14.49 12.125 18 12.125C21.51 12.125 24.375 14.99 24.375 18.5C24.375 22.01 21.51 24.875 18 24.875ZM18 14.375C15.72 14.375 13.875 16.22 13.875 18.5C13.875 20.78 15.72 22.625 18 22.625C20.28 22.625 22.125 20.78 22.125 18.5C22.125 16.22 20.28 14.375 18 14.375Z" fill="black"/>
<path id="Vector_3" d="M25.5 11.7499C25.305 11.7499 25.11 11.7049 24.93 11.6299C24.75 11.5549 24.585 11.4499 24.435 11.3149C24.3 11.1649 24.18 10.9999 24.105 10.8199C24.03 10.6399 24 10.4449 24 10.2499C24 10.0549 24.03 9.85986 24.105 9.67986C24.195 9.48486 24.3 9.33486 24.435 9.18486C24.51 9.12486 24.585 9.04986 24.66 9.00486C24.75 8.94486 24.84 8.89986 24.93 8.86986C25.02 8.82486 25.11 8.79486 25.215 8.77986C25.695 8.67486 26.205 8.83986 26.565 9.18486C26.7 9.33486 26.805 9.48486 26.88 9.67986C26.955 9.85986 27 10.0549 27 10.2499C27 10.4449 26.955 10.6399 26.88 10.8199C26.805 10.9999 26.7 11.1649 26.565 11.3149C26.415 11.4499 26.25 11.5549 26.07 11.6299C25.89 11.7049 25.695 11.7499 25.5 11.7499Z" fill="black"/>
</g>
</g>
</svg>
