<svg width="36" height="37" viewBox="0 0 36 37" fill="none" xmlns="http://www.w3.org/2000/svg">
<g id="vuesax/outline/send-2">
<g id="send-2">
<path id="Vector" d="M21.3303 32.945C19.5603 32.945 17.0553 31.7 15.0753 25.745L13.9953 22.505L10.7553 21.425C4.81531 19.445 3.57031 16.94 3.57031 15.17C3.57031 13.415 4.81531 10.895 10.7553 8.89998L23.4903 4.65498C26.6703 3.58998 29.3253 3.90498 30.9603 5.52498C32.5953 7.14498 32.9103 9.81498 31.8453 12.995L27.6003 25.73C25.6053 31.7 23.1003 32.945 21.3303 32.945ZM11.4603 11.045C7.29031 12.44 5.80531 14.09 5.80531 15.17C5.80531 16.25 7.29031 17.9 11.4603 19.28L15.2403 20.54C15.5703 20.645 15.8403 20.915 15.9453 21.245L17.2053 25.025C18.5853 29.195 20.2503 30.68 21.3303 30.68C22.4103 30.68 24.0603 29.195 25.4553 25.025L29.7003 12.29C30.4653 9.97998 30.3303 8.08998 29.3553 7.11498C28.3803 6.13998 26.4903 6.01998 24.1953 6.78498L11.4603 11.045Z" fill="black"/>
<path id="Vector_2" d="M15.1642 22.1C14.8792 22.1 14.5942 21.995 14.3692 21.77C13.9342 21.335 13.9342 20.615 14.3692 20.18L19.7392 14.795C20.1742 14.36 20.8942 14.36 21.3292 14.795C21.7642 15.23 21.7642 15.95 21.3292 16.385L15.9592 21.77C15.7492 21.995 15.4492 22.1 15.1642 22.1Z" fill="black"/>
</g>
</g>
</svg>
