<svg width="21" height="24" viewBox="0 0 21 24" fill="none" xmlns="http://www.w3.org/2000/svg">
<g id="vuesax/outline/user-edit">
<g id="user-edit">
<path id="Vector" d="M10.5 12.75C7.72625 12.75 5.46875 10.17 5.46875 7C5.46875 3.83 7.72625 1.25 10.5 1.25C13.2738 1.25 15.5312 3.83 15.5312 7C15.5312 10.17 13.2738 12.75 10.5 12.75ZM10.5 2.75C8.4525 2.75 6.78125 4.66 6.78125 7C6.78125 9.34 8.4525 11.25 10.5 11.25C12.5475 11.25 14.2188 9.34 14.2188 7C14.2188 4.66 12.5475 2.75 10.5 2.75Z" fill="#403F3F"/>
<path id="Vector_2" d="M13.8421 22.7499C13.5096 22.7499 13.1946 22.6099 12.9671 22.3499C12.6959 22.0399 12.5734 21.5899 12.6346 21.1199L12.8009 19.7699C12.8446 19.4199 13.0284 19.0099 13.2471 18.7499L16.3446 15.2099C17.5871 13.7899 18.6809 14.5999 19.2146 15.2099C19.6696 15.7299 19.9059 16.2899 19.9059 16.8499C19.9059 17.4199 19.6784 17.9499 19.2146 18.4799L16.1171 22.0199C15.8984 22.2699 15.5309 22.4799 15.2246 22.5299L14.0434 22.7198C13.9734 22.7398 13.9121 22.7499 13.8421 22.7499ZM17.7709 15.9199C17.6134 15.9199 17.4734 16.0399 17.2721 16.2699L14.1746 19.8099C14.1484 19.8399 14.1046 19.9399 14.1046 19.9799L13.9471 21.2299L15.0409 21.0499C15.0759 21.0399 15.1634 20.9899 15.1896 20.9599L18.2871 17.4199C18.4271 17.2599 18.5934 17.0299 18.5934 16.8499C18.5934 16.6999 18.4884 16.4899 18.2871 16.2699C18.0771 16.0299 17.9196 15.9199 17.7709 15.9199Z" fill="#403F3F"/>
<path id="Vector_3" d="M18.3055 19.2198C18.2443 19.2198 18.183 19.2099 18.1305 19.1899C16.9755 18.8199 16.0568 17.7699 15.733 16.4499C15.6368 16.0499 15.838 15.6399 16.188 15.5299C16.538 15.4199 16.8968 15.6499 16.993 16.0499C17.1943 16.8699 17.763 17.5199 18.4805 17.7499C18.8305 17.8599 19.0318 18.2799 18.9355 18.6699C18.8568 18.9999 18.5943 19.2198 18.3055 19.2198Z" fill="#403F3F"/>
<path id="Vector_4" d="M2.98438 22.75C2.62563 22.75 2.32812 22.41 2.32812 22C2.32812 17.73 5.9944 14.25 10.5006 14.25C11.4544 14.25 12.3994 14.41 13.2831 14.71C13.6331 14.83 13.8256 15.25 13.7206 15.64C13.6156 16.04 13.2481 16.26 12.9069 16.14C12.1369 15.88 11.3319 15.74 10.5006 15.74C6.72065 15.74 3.64063 18.54 3.64063 21.99C3.64063 22.41 3.34313 22.75 2.98438 22.75Z" fill="#403F3F"/>
</g>
</g>
</svg>
