<svg width="36" height="37" viewBox="0 0 36 37" fill="none" xmlns="http://www.w3.org/2000/svg">
<g id="vuesax/outline/youtube">
<g id="youtube">
<path id="Vector" d="M25.5 31.625H10.5C5.34 31.625 1.875 28.16 1.875 23V14C1.875 8.84 5.34 5.375 10.5 5.375H25.5C30.66 5.375 34.125 8.84 34.125 14V23C34.125 28.16 30.66 31.625 25.5 31.625ZM10.5 7.625C6.63 7.625 4.125 10.13 4.125 14V23C4.125 26.87 6.63 29.375 10.5 29.375H25.5C29.37 29.375 31.875 26.87 31.875 23V14C31.875 10.13 29.37 7.625 25.5 7.625H10.5Z" fill="black"/>
<path id="Vector_2" d="M15.8855 23.7948C15.4505 23.7948 15.0305 23.6899 14.6555 23.4799C13.7855 22.9849 13.2754 21.9798 13.2754 20.7348V16.2948C13.2754 15.0498 13.7705 14.0449 14.6555 13.5499C15.5255 13.0549 16.6504 13.1448 17.7154 13.7898L21.4205 16.0098C22.4405 16.6248 23.0254 17.5399 23.0254 18.5149C23.0254 19.4899 22.4405 20.4048 21.4205 21.0198L17.7154 23.2398C17.1004 23.5998 16.4705 23.7948 15.8855 23.7948ZM15.8855 15.4548C15.8255 15.4548 15.7804 15.4698 15.7504 15.4848C15.6454 15.5448 15.5254 15.8148 15.5254 16.2798V20.7199C15.5254 21.1699 15.6454 21.4399 15.7504 21.5149C15.8704 21.5749 16.1555 21.5448 16.5455 21.3048L20.2504 19.0849C20.6254 18.8599 20.7605 18.6348 20.7605 18.4998C20.7605 18.3648 20.6254 18.1548 20.2504 17.9148L16.5455 15.6948C16.2755 15.5298 16.0355 15.4548 15.8855 15.4548Z" fill="black"/>
</g>
</g>
</svg>
